<mxfile host="app.diagrams.net" agent="Mozilla/5.0 (X11; Ubuntu; Linux x86_64; rv:139.0) Gecko/20100101 Firefox/139.0" version="27.0.9">
  <diagram name="Page-1" id="BmSdOeZuzdqFtE4mL2rG">
    <mxGraphModel dx="2206" dy="800" grid="1" gridSize="10" guides="1" tooltips="1" connect="1" arrows="1" fold="1" page="1" pageScale="1" pageWidth="850" pageHeight="1100" math="0" shadow="0">
      <root>
        <mxCell id="0" />
        <mxCell id="1" parent="0" />
        <mxCell id="356vMVxwl8-AX2X-nnep-1" value="&lt;div&gt;Nvidia GH 200&lt;/div&gt;&lt;div&gt;64 vCPU, 96 GB VRAM, 432 GB RAM, 2 TB SSD&lt;/div&gt;" style="rounded=0;whiteSpace=wrap;html=1;" vertex="1" parent="1">
          <mxGeometry x="330" y="690" width="280" height="60" as="geometry" />
        </mxCell>
        <mxCell id="356vMVxwl8-AX2X-nnep-19" style="edgeStyle=orthogonalEdgeStyle;rounded=0;orthogonalLoop=1;jettySize=auto;html=1;entryX=0.5;entryY=1;entryDx=0;entryDy=0;" edge="1" parent="1" source="356vMVxwl8-AX2X-nnep-2" target="356vMVxwl8-AX2X-nnep-11">
          <mxGeometry relative="1" as="geometry">
            <Array as="points">
              <mxPoint x="150" y="500" />
              <mxPoint x="430" y="500" />
            </Array>
          </mxGeometry>
        </mxCell>
        <mxCell id="356vMVxwl8-AX2X-nnep-2" value="&lt;div&gt;llama.cpp&lt;/div&gt;&lt;div&gt;Gemma3-27B-IT-QAT&lt;/div&gt;" style="rounded=0;whiteSpace=wrap;html=1;" vertex="1" parent="1">
          <mxGeometry x="90" y="580" width="120" height="60" as="geometry" />
        </mxCell>
        <mxCell id="356vMVxwl8-AX2X-nnep-20" style="edgeStyle=orthogonalEdgeStyle;rounded=0;orthogonalLoop=1;jettySize=auto;html=1;entryX=0.5;entryY=1;entryDx=0;entryDy=0;" edge="1" parent="1" source="356vMVxwl8-AX2X-nnep-3" target="356vMVxwl8-AX2X-nnep-11">
          <mxGeometry relative="1" as="geometry">
            <Array as="points">
              <mxPoint x="298" y="500" />
              <mxPoint x="430" y="500" />
            </Array>
          </mxGeometry>
        </mxCell>
        <mxCell id="356vMVxwl8-AX2X-nnep-3" value="&lt;div&gt;llama.cpp&lt;/div&gt;&lt;div&gt;Qwen3-30B-AEB-GGUF&lt;/div&gt;" style="rounded=0;whiteSpace=wrap;html=1;" vertex="1" parent="1">
          <mxGeometry x="225" y="582" width="145" height="60" as="geometry" />
        </mxCell>
        <mxCell id="356vMVxwl8-AX2X-nnep-17" style="edgeStyle=orthogonalEdgeStyle;rounded=0;orthogonalLoop=1;jettySize=auto;html=1;" edge="1" parent="1" source="356vMVxwl8-AX2X-nnep-4" target="356vMVxwl8-AX2X-nnep-11">
          <mxGeometry relative="1" as="geometry" />
        </mxCell>
        <mxCell id="356vMVxwl8-AX2X-nnep-4" value="&lt;div&gt;ASR&lt;/div&gt;&lt;div&gt;IndicConformer&lt;/div&gt;" style="rounded=0;whiteSpace=wrap;html=1;" vertex="1" parent="1">
          <mxGeometry x="382.5" y="582" width="95" height="60" as="geometry" />
        </mxCell>
        <mxCell id="356vMVxwl8-AX2X-nnep-18" style="edgeStyle=orthogonalEdgeStyle;rounded=0;orthogonalLoop=1;jettySize=auto;html=1;" edge="1" parent="1" source="356vMVxwl8-AX2X-nnep-5">
          <mxGeometry relative="1" as="geometry">
            <mxPoint x="430" y="450" as="targetPoint" />
            <Array as="points">
              <mxPoint x="510" y="500" />
              <mxPoint x="431" y="500" />
            </Array>
          </mxGeometry>
        </mxCell>
        <mxCell id="356vMVxwl8-AX2X-nnep-5" value="&lt;div&gt;TTS&lt;/div&gt;&lt;div&gt;IndicF5&lt;/div&gt;" style="rounded=0;whiteSpace=wrap;html=1;" vertex="1" parent="1">
          <mxGeometry x="490" y="582" width="80" height="60" as="geometry" />
        </mxCell>
        <mxCell id="356vMVxwl8-AX2X-nnep-21" style="edgeStyle=orthogonalEdgeStyle;rounded=0;orthogonalLoop=1;jettySize=auto;html=1;entryX=0.5;entryY=1;entryDx=0;entryDy=0;" edge="1" parent="1" source="356vMVxwl8-AX2X-nnep-6" target="356vMVxwl8-AX2X-nnep-11">
          <mxGeometry relative="1" as="geometry">
            <Array as="points">
              <mxPoint x="640" y="500" />
              <mxPoint x="430" y="500" />
            </Array>
          </mxGeometry>
        </mxCell>
        <mxCell id="356vMVxwl8-AX2X-nnep-6" value="&lt;div&gt;Translate&lt;/div&gt;&lt;div&gt;IndicTrans2&lt;/div&gt;" style="rounded=0;whiteSpace=wrap;html=1;" vertex="1" parent="1">
          <mxGeometry x="580" y="582" width="120" height="60" as="geometry" />
        </mxCell>
        <mxCell id="356vMVxwl8-AX2X-nnep-22" style="edgeStyle=orthogonalEdgeStyle;rounded=0;orthogonalLoop=1;jettySize=auto;html=1;entryX=0.5;entryY=1;entryDx=0;entryDy=0;" edge="1" parent="1" source="356vMVxwl8-AX2X-nnep-7" target="356vMVxwl8-AX2X-nnep-11">
          <mxGeometry relative="1" as="geometry">
            <Array as="points">
              <mxPoint x="770" y="500" />
              <mxPoint x="430" y="500" />
            </Array>
          </mxGeometry>
        </mxCell>
        <mxCell id="356vMVxwl8-AX2X-nnep-7" value="&lt;div&gt;Documents&lt;/div&gt;&lt;div&gt;olmocr&lt;/div&gt;" style="rounded=0;whiteSpace=wrap;html=1;" vertex="1" parent="1">
          <mxGeometry x="710" y="582" width="120" height="60" as="geometry" />
        </mxCell>
        <mxCell id="356vMVxwl8-AX2X-nnep-9" value="&lt;font style=&quot;font-size: 14px;&quot;&gt;&lt;b&gt;dwani.ai -instance&lt;/b&gt;&lt;/font&gt;" style="text;html=1;align=center;verticalAlign=middle;whiteSpace=wrap;rounded=0;" vertex="1" parent="1">
          <mxGeometry x="670" y="340" width="140" height="30" as="geometry" />
        </mxCell>
        <mxCell id="356vMVxwl8-AX2X-nnep-11" value="API Router" style="rounded=0;whiteSpace=wrap;html=1;" vertex="1" parent="1">
          <mxGeometry x="370" y="390" width="120" height="60" as="geometry" />
        </mxCell>
        <mxCell id="356vMVxwl8-AX2X-nnep-23" value="" style="rounded=0;whiteSpace=wrap;html=1;fillColor=none;" vertex="1" parent="1">
          <mxGeometry x="60" y="370" width="780" height="390" as="geometry" />
        </mxCell>
        <mxCell id="356vMVxwl8-AX2X-nnep-24" value="&lt;div&gt;Proxy Server&lt;/div&gt;&lt;div&gt;n-k&lt;/div&gt;" style="rounded=0;whiteSpace=wrap;html=1;" vertex="1" parent="1">
          <mxGeometry x="365" y="260" width="120" height="60" as="geometry" />
        </mxCell>
        <mxCell id="356vMVxwl8-AX2X-nnep-25" value="&lt;div&gt;Proxy Server&lt;/div&gt;&lt;div&gt;1&lt;/div&gt;" style="rounded=0;whiteSpace=wrap;html=1;" vertex="1" parent="1">
          <mxGeometry x="210" y="260" width="120" height="60" as="geometry" />
        </mxCell>
        <mxCell id="356vMVxwl8-AX2X-nnep-26" value="&lt;div&gt;Proxy Server&lt;/div&gt;&lt;div&gt;n&lt;/div&gt;" style="rounded=0;whiteSpace=wrap;html=1;" vertex="1" parent="1">
          <mxGeometry x="500" y="260" width="120" height="60" as="geometry" />
        </mxCell>
        <mxCell id="356vMVxwl8-AX2X-nnep-27" style="edgeStyle=orthogonalEdgeStyle;rounded=0;orthogonalLoop=1;jettySize=auto;html=1;entryX=0.467;entryY=-0.01;entryDx=0;entryDy=0;entryPerimeter=0;" edge="1" parent="1" source="356vMVxwl8-AX2X-nnep-24" target="356vMVxwl8-AX2X-nnep-23">
          <mxGeometry relative="1" as="geometry" />
        </mxCell>
        <mxCell id="356vMVxwl8-AX2X-nnep-29" style="edgeStyle=orthogonalEdgeStyle;rounded=0;orthogonalLoop=1;jettySize=auto;html=1;entryX=0.5;entryY=0;entryDx=0;entryDy=0;" edge="1" parent="1" source="356vMVxwl8-AX2X-nnep-28" target="356vMVxwl8-AX2X-nnep-24">
          <mxGeometry relative="1" as="geometry" />
        </mxCell>
        <mxCell id="356vMVxwl8-AX2X-nnep-32" style="edgeStyle=orthogonalEdgeStyle;rounded=0;orthogonalLoop=1;jettySize=auto;html=1;entryX=0.5;entryY=0;entryDx=0;entryDy=0;" edge="1" parent="1" source="356vMVxwl8-AX2X-nnep-28" target="356vMVxwl8-AX2X-nnep-25">
          <mxGeometry relative="1" as="geometry" />
        </mxCell>
        <mxCell id="356vMVxwl8-AX2X-nnep-28" value="Load Balancer" style="rounded=0;whiteSpace=wrap;html=1;" vertex="1" parent="1">
          <mxGeometry x="365" y="120" width="120" height="60" as="geometry" />
        </mxCell>
        <mxCell id="356vMVxwl8-AX2X-nnep-31" style="edgeStyle=orthogonalEdgeStyle;rounded=0;orthogonalLoop=1;jettySize=auto;html=1;entryX=0.5;entryY=0;entryDx=0;entryDy=0;" edge="1" parent="1" source="356vMVxwl8-AX2X-nnep-28" target="356vMVxwl8-AX2X-nnep-26">
          <mxGeometry relative="1" as="geometry" />
        </mxCell>
        <mxCell id="356vMVxwl8-AX2X-nnep-33" value="&lt;font style=&quot;font-size: 14px;&quot;&gt;&lt;b&gt;api.dwani.ai&lt;/b&gt;&lt;/font&gt;" style="text;html=1;align=center;verticalAlign=middle;whiteSpace=wrap;rounded=0;" vertex="1" parent="1">
          <mxGeometry x="470" y="90" width="60" height="30" as="geometry" />
        </mxCell>
        <mxCell id="356vMVxwl8-AX2X-nnep-34" value="" style="rounded=0;whiteSpace=wrap;html=1;fillColor=none;" vertex="1" parent="1">
          <mxGeometry x="-10" y="20" width="980" height="780" as="geometry" />
        </mxCell>
      </root>
    </mxGraphModel>
  </diagram>
</mxfile>
